/* XPM */
static char * close_xpm[] = {
"11 11 4 1",
" 	c None",
".	c #DBDBDB",
"+	c #5D5D5D",
"@	c #1B1B1B",
"...........",
".+@ ... @+.",
".@@@ . @@@.",
". @@@ @@@ .",
".. @@@@@ ..",
"... @@@ ...",
".. @@@@@ ..",
". @@@ @@@ .",
".@@@ . @@@.",
".+@ ... @+.",
"..........."};
