/* XPM */
static char * full_xpm[] = {
"11 11 7 1",
" 	c None",
".	c #DBDBDB",
"+	c #727272",
"@	c #1B1B1B",
"#	c #848484",
"$	c #BABABA",
"%	c #D0D0D0",
"...........",
".+@@@@@@@+.",
".@@@@@@@@@.",
".@@#$$$#@@.",
".@@$%.%$@@.",
".@@$...$@@.",
".@@$%.%$@@.",
".@@#$$$#@@.",
".@@@@@@@@@.",
".+@@@@@@@+.",
"..........."};
