/* XPM */
static char * iconify_xpm[] = {
"11 11 5 1",
" 	c None",
".	c #DBDBDB",
"+	c #888888",
"@	c #1B1B1B",
"#	c #5D5D5D",
"...........",
"...........",
"...........",
"...........",
"..+@@@@@+..",
"..#@@@@@#..",
"..+@@@@@+..",
"...........",
"...........",
"...........",
"..........."};
