/* XPM */
static char * unfull_xpm[] = {
"11 11 7 1",
" 	c None",
".	c #DBDBDB",
"+	c #1B1B1B",
"@	c #585858",
"#	c #848484",
"$	c #BABABA",
"%	c #D0D0D0",
"...........",
"...++++++@.",
"...+++++++.",
"...#$$$#++.",
".@++++@$++.",
".++++++$++.",
".++$%++$++.",
".++#$++#++.",
".++++++....",
".@++++@....",
"..........."};
